<svg xmlns="http://www.w3.org/2000/svg" width="273" height="273" viewBox="0 0 273 273"><g transform="translate(-303 -245)"><rect width="273" height="273" transform="translate(303 245)" fill="rgba(81,34,192,0.13)"/><path d="M17.714,90.578A7.465,7.465,0,0,1,12.24,88.3,7.465,7.465,0,0,1,9.96,82.824V17.371L3.346,10.758a3.3,3.3,0,0,1-.969-2.566A3.685,3.685,0,0,1,3.46,5.626,3.737,3.737,0,0,1,6.026,4.6,3.346,3.346,0,0,1,8.477,5.626L95.938,93.2a3.548,3.548,0,0,1-5.017,5.017l-7.754-7.64Zm0-7.754h57.7L61.957,69.369h-33.3a1.882,1.882,0,0,1-1.881-1.14,1.98,1.98,0,0,1,.285-2.167l9.35-10.833a2.127,2.127,0,0,1,1.539-.684,2,2,0,0,1,1.539.8l7.64,10.491,5.245-6.272L17.714,25.011V82.824ZM93.43,80.886l-7.754-7.754V14.863H27.406L19.652,7.109H85.675a7.465,7.465,0,0,1,5.473,2.281,7.465,7.465,0,0,1,2.281,5.473ZM56.826,44.4ZM46.677,53.975Z" transform="translate(389.562 329.302)" fill="#5122c0"/></g></svg>